<?xml version="1.0" standalone="no"?>
<!DOCTYPE svg PUBLIC "-//W3C//DTD SVG 20010904//EN"
 "http://www.w3.org/TR/2001/REC-SVG-20010904/DTD/svg10.dtd">
<svg version="1.0" xmlns="http://www.w3.org/2000/svg"
 width="1280.000000pt" height="966.000000pt" viewBox="0 0 1280.000000 966.000000"
 preserveAspectRatio="xMidYMid meet">
<metadata>
Created by potrace 1.15, written by Peter Selinger 2001-2017
</metadata>
<g transform="translate(0.000000,966.000000) scale(0.100000,-0.100000)"
fill="#000" stroke="none">
<path d="M12005 9645 c-223 -36 -403 -126 -556 -278 -141 -140 -256 -329 -300
-493 -18 -65 -22 -107 -22 -234 -1 -178 19 -288 98 -563 53 -184 99 -366 116
-457 18 -97 16 -311 -4 -392 -39 -159 -126 -307 -261 -443 -131 -132 -222
-187 -541 -332 -332 -150 -477 -238 -859 -522 -227 -169 -301 -219 -401 -268
-271 -135 -473 -148 -1265 -82 -852 71 -1631 -2 -2601 -246 -378 -95 -463 -99
-874 -39 -144 21 -229 28 -350 28 -188 1 -238 -10 -515 -109 -284 -102 -325
-110 -530 -109 -111 1 -240 9 -355 23 -326 39 -448 51 -635 60 -102 6 -217 17
-255 25 -211 45 -414 154 -549 297 -37 38 -70 69 -75 69 -10 0 -35 -28 -51
-59 -28 -55 -6 -163 51 -243 14 -19 17 -29 8 -25 -8 3 -52 18 -99 33 -108 34
-136 48 -184 93 l-38 36 5 -60 c4 -44 18 -86 52 -157 90 -185 77 -226 -132
-434 -204 -203 -245 -283 -263 -513 -10 -129 -14 -149 -56 -286 -14 -44 -29
-108 -33 -143 l-7 -63 80 -77 c126 -121 225 -181 338 -206 99 -22 652 -30 743
-11 145 31 268 12 434 -66 l84 -39 -6 -74 c-8 -93 -46 -272 -93 -436 -31 -108
-37 -148 -45 -290 -13 -228 -32 -287 -156 -475 -146 -220 -288 -374 -747 -808
-199 -187 -417 -395 -486 -462 -175 -170 -222 -200 -390 -244 -130 -35 -216
-94 -260 -181 -39 -76 -22 -129 69 -220 162 -162 363 -183 618 -65 147 68 311
188 556 407 370 332 405 358 692 513 344 186 405 228 665 461 415 371 527 434
895 498 205 35 281 58 409 122 127 63 139 64 298 30 149 -32 224 -61 387 -152
166 -92 203 -122 280 -224 143 -189 249 -441 401 -950 77 -253 81 -275 65
-285 -173 -102 -270 -184 -295 -249 -38 -101 23 -223 129 -261 63 -22 130 -19
306 15 86 17 164 30 172 30 24 0 131 70 165 109 69 78 106 203 115 381 11 236
-29 485 -127 800 -107 340 -139 493 -147 695 -4 104 -1 166 11 240 9 54 18
101 20 102 2 2 55 -5 117 -16 142 -25 270 -37 619 -56 327 -19 409 -29 770
-100 287 -56 371 -68 583 -85 284 -24 419 -93 702 -361 72 -68 197 -185 279
-259 146 -132 243 -236 293 -311 32 -49 32 -99 0 -147 -38 -58 -198 -217 -347
-344 -74 -63 -144 -125 -155 -138 -41 -45 -69 -52 -180 -45 -97 7 -107 6 -158
-18 -138 -63 -226 -228 -183 -342 32 -83 92 -117 227 -131 103 -10 501 15 588
37 244 63 557 285 854 607 107 116 293 344 373 457 49 69 49 70 48 145 -1 99
-24 157 -125 310 -95 145 -114 190 -130 302 -10 70 -10 101 4 199 19 127 43
219 58 219 5 0 78 -34 162 -76 191 -96 202 -100 542 -184 589 -145 778 -215
945 -346 215 -168 552 -769 625 -1112 36 -166 114 -240 261 -250 94 -6 148 13
203 73 79 86 115 189 116 333 0 94 -2 105 -21 120 -18 14 -22 31 -27 107 -9
153 -58 278 -239 602 -100 180 -117 218 -195 443 -72 208 -102 276 -172 394
-69 114 -99 178 -115 239 -9 37 -20 55 -37 64 -13 7 -76 37 -139 67 -319 150
-625 420 -786 693 -67 112 -95 191 -158 433 -66 252 -84 309 -138 448 -49 123
-79 172 -228 362 -141 180 -210 278 -210 301 0 10 15 54 34 98 125 295 329
530 801 923 253 209 282 237 376 347 322 378 469 765 469 1234 0 213 -17 342
-85 648 -78 349 -57 452 138 671 278 312 369 603 218 692 -44 26 -156 30 -276
11z"/>
</g>
</svg>
