<?xml version="1.0" standalone="no"?>
<!DOCTYPE svg PUBLIC "-//W3C//DTD SVG 20010904//EN"
 "http://www.w3.org/TR/2001/REC-SVG-20010904/DTD/svg10.dtd">
<svg version="1.0" xmlns="http://www.w3.org/2000/svg"
 width="1280.000000pt" height="1136.000000pt" viewBox="0 0 1280.000000 1136.000000"
 preserveAspectRatio="xMidYMid meet">
<metadata>
Created by potrace 1.15, written by Peter Selinger 2001-2017
</metadata>
<g transform="translate(0.000000,1136.000000) scale(0.100000,-0.100000)"
fill="#000000" stroke="none">
<path d="M5805 11350 c-233 -24 -496 -100 -710 -205 -367 -181 -673 -455
-1415 -1270 -544 -597 -875 -908 -1195 -1120 -382 -255 -778 -369 -1165 -336
-328 28 -648 116 -1010 279 -241 108 -310 131 -310 103 0 -42 629 -1428 2108
-4645 l409 -890 154 -82 c526 -282 754 -333 1429 -321 326 6 361 12 571 98
509 209 806 455 1579 1309 456 503 732 777 1008 997 327 263 642 419 972 485
95 18 148 22 300 22 211 0 349 -17 559 -70 267 -66 447 -136 731 -280 l166
-84 199 -432 c109 -238 317 -692 463 -1008 1442 -3138 1767 -3838 1794 -3867
12 -12 30 -25 40 -29 34 -10 318 71 318 92 0 17 -546 1219 -1178 2589 -192
418 -522 1134 -732 1590 -210 457 -433 940 -495 1075 -98 214 -293 634 -975
2105 -87 187 -344 743 -573 1235 -608 1311 -1141 2449 -1165 2487 -6 10 -23
10 -72 2 -148 -23 -250 -74 -250 -126 0 -24 -3 -25 -37 -21 -21 3 -114 38
-206 77 -93 39 -213 87 -267 106 -128 44 -356 100 -490 120 -128 19 -433 27
-555 15z m430 -65 c493 -85 908 -229 1062 -370 109 -99 170 -203 356 -611 184
-403 198 -444 145 -429 -13 4 -81 36 -153 71 -302 148 -731 249 -1102 261
l-192 6 -147 326 c-156 346 -270 612 -298 699 -27 82 -22 86 87 79 50 -3 160
-18 242 -32z m-1543 -552 c47 -56 170 -301 383 -763 60 -129 110 -237 112
-239 1 -2 22 9 45 24 374 248 829 444 1030 445 53 0 59 -2 82 -33 55 -72 359
-724 425 -912 48 -135 49 -133 -94 -171 -348 -91 -506 -160 -807 -353 -148
-95 -170 -103 -192 -69 -9 14 -84 173 -167 354 -190 415 -315 674 -326 674
-15 0 -120 -85 -222 -180 -56 -52 -195 -194 -309 -315 -252 -266 -391 -405
-408 -405 -7 0 -22 15 -33 33 -46 75 -350 737 -400 870 -12 32 -21 81 -21 111
0 48 5 60 44 113 143 189 785 833 832 833 6 0 18 -8 26 -17z m2520 -1619 c302
-42 648 -140 918 -261 80 -36 166 -74 192 -85 l46 -20 162 -351 c166 -360 302
-663 315 -705 9 -31 10 -31 -225 68 -389 164 -615 221 -1045 261 -121 12 -221
22 -221 23 -5 4 -257 553 -324 706 -72 161 -140 330 -140 346 0 3 15 11 33 19
43 19 151 19 289 -1z m-4388 -332 c14 -27 93 -197 176 -378 200 -435 282 -604
290 -604 4 0 26 13 50 29 90 60 260 224 515 496 144 154 289 304 321 334 54
50 59 52 72 35 21 -28 77 -142 202 -409 143 -305 262 -543 287 -574 l20 -24
48 44 c26 24 141 143 254 263 221 236 429 433 554 527 43 33 82 59 86 59 9 0
49 -82 201 -410 136 -295 257 -545 290 -598 l20 -33 33 17 c17 9 88 53 157 98
279 180 502 272 814 336 54 11 106 20 115 20 19 0 70 -100 266 -525 134 -291
195 -445 202 -510 7 -71 -16 -90 -126 -99 -176 -14 -483 -145 -781 -331 -123
-77 -173 -105 -188 -105 -10 0 -113 220 -349 744 -79 176 -145 322 -148 324
-9 10 -205 -158 -336 -288 -74 -74 -183 -193 -241 -265 -108 -134 -337 -365
-361 -365 -19 0 -101 151 -219 403 -143 308 -281 587 -294 598 -20 17 -119
-76 -392 -369 -324 -347 -533 -545 -560 -528 -11 7 -167 332 -345 721 -138
302 -143 310 -173 313 -23 2 -65 -18 -189 -93 -88 -54 -204 -119 -258 -147
-203 -101 -452 -190 -572 -204 -82 -9 -99 -19 -91 -55 8 -44 93 -249 214 -519
123 -275 202 -477 202 -514 0 -40 -32 -49 -155 -48 -278 3 -849 152 -1133 296
-118 60 -145 86 -218 208 -158 266 -408 785 -438 912 -7 28 -7 28 31 21 21 -3
132 -44 248 -90 382 -153 641 -215 997 -240 110 -8 163 -2 172 21 11 29 -91
270 -339 802 -64 139 -116 255 -114 257 2 2 95 26 206 54 302 76 390 109 563
216 192 118 373 225 381 225 5 0 20 -22 33 -48z m5556 -1897 c210 -33 467
-107 708 -204 149 -60 242 -111 277 -153 55 -65 444 -889 462 -978 l5 -30 -38
14 c-22 8 -104 41 -183 75 -167 71 -317 121 -485 161 -189 46 -314 62 -549 69
l-218 6 -234 510 c-129 280 -235 515 -235 521 0 26 56 34 220 30 91 -2 212
-12 270 -21z m-4536 -317 c34 -63 238 -505 376 -818 40 -91 74 -167 76 -169 7
-8 182 148 305 272 73 72 247 255 386 405 140 149 256 272 259 272 7 0 92
-176 258 -534 185 -397 248 -526 257 -526 3 0 112 114 242 253 312 335 516
530 655 626 65 45 54 63 303 -484 125 -275 228 -505 228 -510 1 -6 -91 -95
-203 -198 -112 -103 -271 -258 -353 -344 -292 -311 -371 -387 -386 -375 -22
18 -171 316 -332 662 -80 173 -150 319 -154 323 -5 5 -137 -131 -294 -301
-422 -457 -608 -625 -655 -595 -23 14 -95 153 -278 538 -171 359 -231 475
-245 475 -5 0 -92 -51 -192 -114 -284 -177 -391 -226 -660 -302 -187 -53 -267
-82 -267 -95 0 -16 73 -183 245 -559 184 -402 227 -501 221 -507 -12 -12 -159
-14 -281 -4 -348 30 -570 93 -1040 296 -99 42 -185 82 -191 89 -11 10 -94 187
-327 696 -123 271 -168 373 -163 377 2 3 80 -27 173 -65 429 -179 599 -232
858 -268 123 -17 437 -25 451 -11 10 10 -10 57 -221 522 -101 220 -196 433
-213 472 l-31 73 27 14 c15 8 70 23 122 34 250 54 518 170 770 332 122 78 183
109 217 110 17 0 30 -15 57 -62z m1008 -2185 c19 -43 128 -279 242 -524 113
-245 206 -451 206 -456 0 -9 -197 -133 -370 -233 -189 -110 -469 -223 -617
-250 -144 -26 -198 27 -335 324 -84 182 -241 545 -274 632 -13 35 -21 70 -18
78 7 18 56 36 100 36 157 0 553 169 849 363 88 58 165 106 171 106 6 1 26 -34
46 -76z"/>
</g>
</svg>
